<svg xmlns="http://www.w3.org/2000/svg" width="1024" height="308.8" viewBox="0 0 1024 308.8"><path d="M784.7 206.3c-28.2 28.2-64.3 42.2-108.4 42.2s-80.2-14-108.4-42.2c-28.2-28.2-42.2-64.3-42.2-108.4 0-44.1 14-80.2 42.2-108.4 28.2-28.2 64.3-42.2 108.4-42.2s80.2 14 108.4 42.2c28.2 28.2 42.2 64.3 42.2 108.4 0 44.1-14 80.2-42.2 108.4zm103.5-12.8c16.3-21.9 24.5-48.3 24.5-79.1s-8.2-57.2-24.5-79.1C870.9 13.5 831.8 0 784.7 0c-47.1 0-86.3 13.5-117.5 40.5-31.2 27-46.8 63.8-46.8 110.3 0 46.6 15.6 84.8 46.8 114.7 31.2 30 70.4 44.9 117.5 44.9 47.1 0 86.3-14.9 117.5-44.9zM0 299V9.3h53.1v236.6h178.6v53.1H0z M316.5 299V9.3h53.1v289.7h-53.1z M465.1 144.1h-53.1V9.3h203v48.6h-150v37.6h150v48.6h-150v95.9h150v48.6h-203V144.1zM928.9 308.8c-15.5 0-33.5-2.6-54-7.8l10.9-49.4c17.2 4.4 31.1 6.6 41.7 6.6 12.3 0 18.4-4.2 18.4-12.5 0-6-2.5-10.4-7.6-13.2-5.1-2.8-17.2-6.7-36.2-11.7-29.4-7.8-49.6-19-60.6-33.5-11-14.5-16.4-33.9-16.4-58.1 0-25.3 8.3-46.9 25-64.8 16.6-17.9 38.9-26.9 66.8-26.9 14.5 0 29.9 2.1 46.3 6.3l-10.1 47.9c-11-2.9-22.3-4.4-33.9-4.4-10.1 0-15.2 3.8-15.2 11.3 0 5.4 2.3 9.4 6.8 12.1 4.5 2.7 15.9 6.2 34.1 10.4 29.5 6.9 50.1 17.6 61.9 32.1 11.8 14.5 17.7 34.1 17.7 58.9 0 27.3-8.7 50.1-26.2 68.4-17.5 18.3-42.2 27.4-74.1 27.4z M980.6 154.4c-25-30.8-62-46.2-111-46.2-40.4 0-73.4 11.2-99.1 33.6v-24.3H717v181.4h53.1v-97.4c0-29.3 6.9-50.4 20.8-63.3 14.2-13.2 32.1-19.8 53.9-19.8 28.5 0 48.6 10.8 60.3 32.4V299h54.8V156.2h-7.3z"/></svg>