<svg xmlns="http://www.w3.org/2000/svg" width="1200" height="900.2" viewBox="0 0 1200 900.2"><path d="M968.7 432.2c-31.2 0-59.9 12.3-80.9 32.3-20.9 20-33.3 48.6-33.3 79.7s12.4 59.7 33.3 79.7c21 20 49.7 32.3 80.9 32.3s59.9-12.3 80.9-32.3c20.9-20 33.3-48.6 33.3-79.7s-12.4-59.7-33.3-79.7c-21-20-49.7-32.3-80.9-32.3zm0 200c-21.3 0-40.6-8.6-54.6-22.5s-22-33.3-22-57.2 8-43.3 22-57.2c14-13.9 33.3-22.5 54.6-22.5s40.6 8.6 54.6 22.5c14 13.9 22 33.3 22 57.2s-8 43.3-22 57.2c-14 13.9-33.3 22.5-54.6 22.5zm-592.5 259h-52.9v-543h52.9v543zm363.3-490.1h-165v-52.9h165v52.9z M323.3 354h-165v-52.9h165v52.9zm-82.5-105.8h-82.5v-52.9h82.5v52.9z M1200 847.3v52.9H0v-52.9h158.4V301.1H0v-52.9h206.2v599.1H1200zm-231.2-105.8H803.6v-52.9h165.1v52.9zm-82.6-105.9H803.6v-52.9h82.6v52.9zm-82.5-105.8H803.6v-52.9h82.5v52.9zm-132.2 473.3h-52.9V248.2h52.9v560.7z M584.4 248.2l-155.4 286-155.3-286h-60.9L403.4 543h60.9L655 248.2h-70.6z"/></svg>