<svg xmlns="http://www.w3.org/2000/svg" viewBox="0 0 48 48"><path fill="#FFE600" d="M32.5,23.3l-9.8-9.8c-0.4-0.4-1-0.4-1.4,0l-9.8,9.8c-0.4,0.4-0.4,1,0,1.4l9.8,9.8c0.4,0.4,1,0.4,1.4,0l9.8-9.8C32.9,24.3,32.9,23.7,32.5,23.3z"/><path fill="#FFE600" d="M43.2,14.8L28.4,0c-0.2-0.2-0.5-0.2-0.7,0L12.8,14.8c-0.2,0.2-0.2,0.5,0,0.7L27.6,30.4c0.1,0.1,0.2,0.1,0.4,0.1s0.3,0,0.4-0.1l14.8-14.8C43.4,15.3,43.4,15,43.2,14.8z M28,28.2l-13-13l13-13l13,13L28,28.2z"/><path fill="#3483FA" d="M28,28.2L15,15.2l13-13l13,13L28,28.2z M27.6,4.3L15.4,16.5l11.6,11.6l0.6,0.6l0.6-0.6l11.6-11.6L28.4,4.3C28.2,4.1,27.8,4.1,27.6,4.3z"/></svg>